<?xml version="1.0" standalone="no"?>
<!DOCTYPE svg PUBLIC "-//W3C//DTD SVG 20010904//EN"
 "http://www.w3.org/TR/2001/REC-SVG-20010904/DTD/svg10.dtd">
<svg version="1.0" xmlns="http://www.w3.org/2000/svg"
 width="700.000000pt" height="700.000000pt" viewBox="0 0 700.000000 700.000000"
 preserveAspectRatio="xMidYMid meet">
<metadata>
Created by potrace 1.11, written by Peter Selinger 2001-2013
</metadata>
<g transform="translate(0.000000,700.000000) scale(0.100000,-0.100000)"
fill="#000000" stroke="none">
<path d="M2020 6984 c-47 -7 -103 -16 -124 -20 -69 -11 -271 -81 -362 -125
-443 -215 -766 -613 -885 -1089 -47 -190 -46 -155 -45 -2285 2 -1857 3 -2017
19 -2097 20 -102 65 -260 96 -335 41 -104 149 -301 181 -333 3 -3 19 -25 35
-50 45 -66 240 -259 325 -322 246 -179 502 -281 790 -315 83 -10 2850 -10
2910 -1 25 4 61 10 80 13 137 23 314 81 439 144 109 56 119 62 191 110 330
224 568 554 670 932 57 211 54 68 55 2244 1 1100 -2 2035 -6 2079 -63 571
-418 1065 -944 1315 -75 36 -83 38 -180 70 -79 25 -127 37 -275 68 -19 4 -676
8 -1460 9 -1156 1 -1441 -1 -1510 -12z m2850 -537 c428 -47 791 -338 924 -742
58 -177 55 -55 53 -2235 l-2 -2005 -24 -85 c-34 -122 -89 -245 -155 -344 -175
-263 -451 -435 -773 -481 -24 -3 -630 -6 -1347 -7 l-1305 -1 -33 26 c-51 39
-150 137 -199 197 -174 211 -283 475 -306 740 -9 96 -9 3891 0 3985 27 306
172 612 395 833 40 40 90 85 111 100 l37 27 1285 -1 c706 -1 1309 -4 1339 -7z"/>
<path d="M2259 5929 c-94 -14 -167 -69 -210 -156 -21 -42 -24 -61 -22 -150 5
-264 136 -530 343 -697 151 -121 308 -191 480 -214 30 -4 336 -6 680 -6 l625
1 97 26 c377 100 652 401 711 778 27 169 7 267 -70 343 -51 50 -122 78 -194
77 -65 -1 -92 -9 -149 -47 -78 -52 -113 -124 -123 -255 -13 -162 -125 -304
-283 -358 -57 -20 -78 -20 -659 -18 -566 2 -603 3 -645 21 -150 64 -250 193
-265 342 -10 103 -16 128 -43 177 -54 100 -160 153 -273 136z"/>
<path d="M3435 3783 c-33 -17 -130 -108 -325 -305 l-278 -281 -146 146 c-81
82 -165 156 -188 168 -60 31 -155 33 -221 6 -55 -23 -116 -77 -140 -123 -35
-69 -38 -167 -7 -239 26 -60 308 -348 400 -410 135 -90 276 -112 455 -71 106
24 174 78 490 395 335 336 350 357 349 471 -1 85 -20 132 -76 189 -80 82 -213
105 -313 54z"/>
<path d="M4159 3186 c-126 -45 -193 -141 -192 -272 2 -104 74 -204 176 -242
48 -18 77 -20 372 -18 305 1 322 2 367 23 211 97 216 384 8 494 -44 24 -49 24
-370 26 -247 2 -334 -1 -361 -11z"/>
<path d="M2400 2138 c-119 -21 -210 -137 -209 -268 1 -107 53 -191 149 -238
l63 -32 1204 0 c872 0 1216 3 1243 11 98 30 187 140 194 240 7 111 -61 226
-162 272 l-47 22 -1195 1 c-657 0 -1215 -3 -1240 -8z"/>
</g>
</svg>
