<svg id="Layer_1" enable-background="new 0 0 512 512" height="512" viewBox="0 0 512 512" width="512" xmlns="http://www.w3.org/2000/svg"><g><path d="m124 392.041v-272.082c0-55.206 44.644-99.959 99.716-99.959h-60.716c-55.229 0-100 44.771-100 100v272c0 55.228 44.771 100 100 100h60.716c-55.072 0-99.716-44.753-99.716-99.959z" fill="#cee1f2"/><path d="m348 512h-184c-66.168 0-120-53.832-120-120v-272c0-66.168 53.832-120 120-120h184c66.168 0 120 53.832 120 120v272c0 66.168-53.832 120-120 120zm-184-472c-44.112 0-80 35.888-80 80v272c0 44.112 35.888 80 80 80h184c44.112 0 80-35.888 80-80v-272c0-44.112-35.888-80-80-80zm200 58c0-11.046-8.954-20-20-20s-20 8.954-20 20c0 16.542-13.458 30-30 30h-76c-16.542 0-30-13.458-30-30 0-11.046-8.954-20-20-20s-20 8.954-20 20c0 38.598 31.402 70 70 70h76c38.598 0 70-31.402 70-70z" fill="#1428bf"/><path d="m349 395h-169c-11.046 0-20-8.954-20-20s8.954-20 20-20h169c11.046 0 20 8.954 20 20s-8.954 20-20 20zm20-97c0-11.046-8.954-20-20-20h-39c-11.046 0-20 8.954-20 20s8.954 20 20 20h39c11.046 0 20-8.954 20-20zm-133.2 8.023 38.402-38.734c7.777-7.844 7.723-20.507-.122-28.284-7.843-7.776-20.506-7.723-28.284.122l-38.403 38.734c-.183.184-.41.183-.592 0l-18.6-18.761c-7.777-7.845-20.44-7.899-28.284-.122s-7.898 20.44-.122 28.284l18.6 18.761c7.657 7.723 17.85 11.977 28.702 11.977 10.854 0 21.047-4.253 28.703-11.977z" fill="#ff5cf0"/></g></svg>